<?xml version="1.0" encoding="UTF-8" standalone="no"?>
<!-- Generator: Adobe Illustrator 12.0.0, SVG Export Plug-In . SVG Version: 6.00 Build 51448)  -->
<svg
   xmlns:dc="http://purl.org/dc/elements/1.1/"
   xmlns:cc="http://web.resource.org/cc/"
   xmlns:rdf="http://www.w3.org/1999/02/22-rdf-syntax-ns#"
   xmlns:svg="http://www.w3.org/2000/svg"
   xmlns="http://www.w3.org/2000/svg"
   xmlns:sodipodi="http://sodipodi.sourceforge.net/DTD/sodipodi-0.dtd"
   xmlns:inkscape="http://www.inkscape.org/namespaces/inkscape"
   version="1.0"
   id="Layer_1"
   width="937.141"
   height="947.388"
   viewBox="0 0 937.141 947.388"
   overflow="visible"
   enable-background="new 0 0 937.141 947.388"
   xml:space="preserve"
   sodipodi:version="0.32"
   inkscape:version="0.45.1"
   sodipodi:docname="Bugger_King_Logo.svg"
   inkscape:output_extension="org.inkscape.output.svg.inkscape"
   sodipodi:docbase="C:\Documents and Settings\Mitch\My Documents"><metadata
   id="metadata48"><rdf:RDF><cc:Work
       rdf:about=""><dc:format>image/svg+xml</dc:format><dc:type
         rdf:resource="http://purl.org/dc/dcmitype/StillImage" /></cc:Work></rdf:RDF></metadata><defs
   id="defs46" /><sodipodi:namedview
   inkscape:window-height="744"
   inkscape:window-width="1280"
   inkscape:pageshadow="2"
   inkscape:pageopacity="0.0"
   guidetolerance="10.0"
   gridtolerance="10.0"
   objecttolerance="10.0"
   borderopacity="1.0"
   bordercolor="#666666"
   pagecolor="#ffffff"
   id="base"
   inkscape:zoom="0.53969718"
   inkscape:cx="468.57049"
   inkscape:cy="473.6945"
   inkscape:window-x="-4"
   inkscape:window-y="-4"
   inkscape:current-layer="Layer_1" />
<g
   id="g3">
	<g
   id="g5">
		<g
   id="g7">
			<g
   id="g9">
				<path
   fill="#FBAA29"
   d="M705.403,133.462c2.205-5.42-2.271-10.737-2.271-10.737s-35.2-59.868-159.712-73.154      c-66.665-7.104-157.427,6.387-221.045,40.693c-115.254,62.109-132.517,164.414-132.517,164.414      c-0.645,2.505-1.75,10.137,0.842,13.389c2.644,3.311,6.482,3.252,11.243,1.641c40.686-13.74,161.931-53.95,238.44-74.253      c108.889-28.872,198.34-46.436,255.754-56.221C700.21,138.545,703.872,137.212,705.403,133.462"
   id="path11" />
				<path
   fill="#00578D"
   d="M829.746,615.645c-65.17,146.367-190.209,248.232-354.074,250.547      c-119.326,1.699-224.641-39.185-300.696-110.493l-45.996,19.673l0.073-71.206C78.94,636.563,49.885,551.06,49.885,453.926      c0-248.789,190.547-444.902,456.306-444.902c43.381,0,82.581,6.753,112.148,13.447C572.798,7.896,527.542,0,477.166,0      C191.953,0,0.007,231.27,0,469.775c0,259.907,203.892,477.612,471.519,477.612c255.615,0,393.523-180.22,437.629-288.604      L829.746,615.645"
   id="path13" />
				<path
   fill="#A90533"
   d="M763.58,564.229c37.514-4.263,63.457-19.336,77.709-33.325c12.979-12.744,16.004-30.308,16.025-43.359      c0.521-19.16,0-79.644,0-79.644l-99.258,21.475c0,0-0.007,7.485-0.036,23.188c0.176,15.337,7.573,23.687,23.649,20.728      c5.039-0.82,12.803-3.296,12.803-3.296l0.125,18.955c-0.08-0.542,1.473,10.562-23.547,15.513      c-32.732,5.142-47.601-15-47.996-50.596c0.652-38.145,22.215-60.146,48.377-66.167c29.443-6.753,46.098,0.264,55.898,1.758      c32.871,4.922,42.194-44.37,12.289-55.928c-22.104-8.906-50.793-10.518-78.135-5.054c-36.503,7.28-108.303,37.837-108.5,137.124      C653.174,544.497,711.343,570.205,763.58,564.229"
   id="path15" />
				<path
   fill="#A90533"
   d="M440.933,648.794c0,0,30.461-10.459,33.091-11.382c24.478-8.438,33.398-22.998,33.281-48.193      c-0.3-27.349-0.352-80.684-0.352-80.684l70.818,81.592c11.499,11.88,25.92,12.891,39.119,9.023      c13.638-3.999,25.005-16.479,25.342-34.072c0.117-58.916-0.029-202.72-0.029-202.72s-18.289,3.882-33.479,8.188      c-17.483,4.951-30.93,16.099-30.93,45.513c0,10.415-0.037,70.181-0.037,70.181s-39.851-49.98-65.918-76.055      c-13.923-13.916-36.98-5.61-36.98-5.61l-33.977,10.283L440.933,648.794"
   id="path17" />
				<path
   fill="#A90533"
   d="M419.495,420.132c0,0-21.328,6.255-38.679,12.524c-22.544,8.145-35.53,21.182-35.53,55.298      c0,31.333-0.059,194.399-0.059,194.399s19.746-6.753,38.152-13.696c26.162-9.858,36.042-23.32,36.042-50.801      C419.421,594.243,419.495,420.132,419.495,420.132"
   id="path19" />
				<path
   fill="#A90533"
   d="M313.66,466.392c-19.578-8.892-36.379,1.025-43.513,11.982l-60.168,102.334l-0.103-82.5l-70.928,29.385      l-0.22,233.306l49.966-20.947c0,0,9.8-2.783,15.718-12.085c5.442-8.569,5.244-22.939,5.244-22.939l0.059-73.975l55.84,59.253      c12.261,12.729,34.79,19.263,54.668,3.208c17.974-14.517,15.19-39.258,5.164-50.347l-50.867-51.211      c0,0,44.773-70.547,52.09-82.339C336.321,493.857,331.428,474.463,313.66,466.392"
   id="path21" />
				<path
   fill="#FBAA29"
   d="M285.879,740.625c-2.637,6.079,3.384,12.114,3.384,12.114c25.818,32.402,140.442,73.462,264.858,43.389      c190.012-45.952,230.164-180.366,234.705-199.351c0.938-3.867,1.678-10.093-1.919-13.828c-3.011-3.12-7.288-3.149-13.228-1.772      c-131.968,31.025-351.57,98.057-478.184,152.3C290.046,735.806,287.578,736.67,285.879,740.625"
   id="path23" />
				<path
   fill="#A90533"
   d="M173.196,434.868c-0.176-12.861-10.166-19.878-27.444-11.206L145.715,465c0,0,5.581-2.476,9.683-4.38      C165.498,455.933,173.438,447.51,173.196,434.868 M145.408,397.5c3.076-1.201,5.339-2.212,7.917-3.472      c9.36-4.556,16.018-13.008,16.099-23.95c0.095-12.466-10.166-15.688-24.001-8.54L145.408,397.5z M218.54,428.965      c0.557,32.622-22.939,49.98-53.562,62.666l-62.71,26.646l-0.146-169.907c0,0,39.514-16.113,52.405-20.801      c36.643-13.33,58.191,2.739,58.191,27.217c0,16.333-6.995,30.22-22.17,42.422C205.488,399.697,218.247,411.973,218.54,428.965z"
   id="path25" />
				<path
   fill="#A90533"
   d="M337.588,285.557c0-14.312-9.844-18.12-21.746-14.692c-9.624,2.754-20.845,7.134-20.845,7.134      l-0.073,105.63c-0.117,10.518-1.743,23.687-14.7,26.953c-9.954,2.505-14.656-4.131-14.67-14.634l-0.146-86.455      c0-14.385-10.005-18.691-21.863-14.751c-13.345,4.453-21.357,7.661-21.357,7.661s0.146,74.795-0.029,104.707      c-0.176,35.068,24.001,52.573,60.857,41.689c32.505-9.609,54.207-27.803,54.624-74.502L337.588,285.557"
   id="path27" />
				<path
   fill="#A90533"
   d="M686.118,329.209c9.368-2.021,15.212-8.643,15.212-20.083c0-10.313,0.037-18.149,0.037-18.149      l-50.874,11.118l0.103-29.927c0,0,24.924-5.288,31.853-6.797c8.701-1.904,13.257-6.65,13.257-16.597      c0-9.272-0.059-17.3-0.059-17.3l-45.073,9.565l-0.015-23.73c0,0,23.438-4.893,36.064-7.544      c9.836-2.065,13.088-8.804,13.088-18.076c0-6.035,0.095-17.988,0.095-17.988c-22.485,3.97-65.222,12.51-91.875,18.618      l-0.366,154.878C607.566,347.197,658.242,335.259,686.118,329.209"
   id="path29" />
				<path
   id="path31"
   d="M 472.227,292.14078 L 408.88,306.52578 C 408.88,306.52578 408.807,313.21978 408.799,324.14778 C 408.88,332.33578 414.629,337.65378 422.891,335.95478 C 428.106,334.87078 432.281,333.90378 432.281,333.90378 L 432.376,351.49678 C 432.435,358.45478 421.998,363.01078 411.15,362.76178 C 395.952,362.36578 387.529,350.55978 387.31,328.08878 C 387.779,298.54278 401.68,281.19878 420.613,276.35078 C 430.069,273.91878 438.667,275.10578 445.347,275.96978 C 461.673,278.60678 471.07,270.74078 471.407,257.24878 C 471.751,242.80578 458.927,233.86978 431.424,234.82178 C 371.79,236.88678 341.299,279.73378 341.299,330.87178 C 341.299,383.23978 375.51,406.36978 417.266,398.82578 C 440.865,394.06478 452.605,386.40378 460.743,379.26978 C 468.866,372.13578 472.22,361.47178 472.227,352.36078 L 472.227,292.14078"
   style="fill:#a90533" />
				<path
   fill="#A90533"
   d="M752.271,237.173c0.051,0,24.821-9.434,24.535-29.297c-0.256-16.802-16.801-13.755-24.602-12.012      L752.271,237.173 M710.698,324.565l0.059-152.93c0,0,44.656-7.896,56.192-9.375c32.006-4.116,53.488,13.652,53.049,38.892      c-0.176,22.192-14.113,35.552-25.972,43.564c0,0,21.774,24.536,27.612,31.025c7.837,8.745,7.492,23.701-4.109,31.025      c-11.396,7.192-22.689,3.428-29.245-3.809l-35.947-42.158c0,0,0.117,25.928,0.088,37.251      c-0.103,11.265-6.628,19.482-18.317,21.899L710.698,324.565z"
   id="path33" />
				<path
   d="M 603.554,260.376 L 540.207,274.761 C 540.207,274.761 540.134,281.455 540.126,292.383 C 540.207,300.571 545.956,305.889 554.218,304.19 C 559.433,303.106 563.608,302.139 563.608,302.139 L 563.703,319.732 C 563.762,326.69 553.325,331.246 542.477,330.997 C 527.279,330.601 518.856,318.795 518.637,296.324 C 519.106,266.778 533.007,249.434 551.94,244.586 C 561.396,242.154 569.994,243.341 576.674,244.205 C 593,246.842 602.397,238.976 602.734,225.484 C 603.078,211.041 590.254,202.105 562.751,203.057 C 503.117,205.122 472.626,247.969 472.626,299.107 C 472.626,351.475 506.837,374.605 548.593,367.061 C 572.192,362.3 583.932,354.639 592.07,347.505 C 600.193,340.371 603.547,329.707 603.554,320.596 L 603.554,260.376"
   id="path35"
   style="fill:#a90533" />
				<path
   fill="#FFFFFF"
   d="M347.996,89.092c-69.858,30.835-117.026,104.238-119.612,135.308      c-1.025,12.349,15.352,14.121,16.89,1.011C260.017,168.735,305.134,115.298,347.996,89.092"
   id="path37" />
				<path
   fill="#FFFFFF"
   d="M579.47,141.753c37.683-9.243,58.367-10.635,58.74-27.466c0.659-28.184-79.746-60.864-153.376-54.946      c75.022,5.01,120.015,33.896,120.264,54.023C605.244,126.094,594.207,137.329,579.47,141.753"
   id="path39" />
				<path
   fill="#FFFFFF"
   d="M602.82,764.707c56.543-22.236,110.867-64.717,140.926-128.335c8.664-18.384-16.414-27.773-23.489-6.182      C702.664,675.41,666.511,728.525,602.82,764.707"
   id="path41" />
				<path
   fill="#A90533"
   d="M887.535,573.56h7.712c4.196,0,9.492,0.762,9.492,5.728c0,5.625-3.867,6.387-9.03,6.387h-8.174V573.56       M878.386,612.583h9.148v-19.731h5.734l11.242,19.731h9.596l-12.35-20.171c6.834-0.571,12.129-3.867,12.129-12.349      c0-10.034-6.511-13.682-18.076-13.682h-17.424V612.583z M852.48,589.541c0,25.122,19.951,41.338,42.327,41.338      c22.383,0,42.334-16.216,42.334-41.338c0-25.034-19.951-41.133-42.334-41.133C872.431,548.408,852.48,564.507,852.48,589.541z       M863.73,589.541c0-18.75,13.763-32.314,31.077-32.314c17.103,0,31.091,13.564,31.091,32.314      c0,18.853-13.988,32.52-31.091,32.52C877.493,622.061,863.73,608.394,863.73,589.541z"
   id="path43" />
			</g>
		</g>
	</g>
</g>
</svg>